<svg width="63" height="72" viewBox="0 0 63 72" fill="none" xmlns="http://www.w3.org/2000/svg">
<path d="M50.875 12V60H45.25L19.0938 22.3125H18.625V60H12.8125V12H18.4375L44.6875 49.7813H45.1563V12H50.875Z" fill="black"/>
<path d="M62.3636 36.0909C62.3636 43.4546 61.0341 49.8182 58.375 55.1818C55.7159 60.5455 52.0682 64.6818 47.4318 67.5909C42.7955 70.5 37.5 71.9546 31.5455 71.9546C25.5909 71.9546 20.2955 70.5 15.6591 67.5909C11.0227 64.6818 7.37501 60.5455 4.71592 55.1818C2.05683 49.8182 0.72728 43.4546 0.72728 36.0909C0.72728 28.7273 2.05683 22.3637 4.71592 17C7.37501 11.6364 11.0227 7.50002 15.6591 4.59093C20.2955 1.68184 25.5909 0.227295 31.5455 0.227295C37.5 0.227295 42.7955 1.68184 47.4318 4.59093C52.0682 7.50002 55.7159 11.6364 58.375 17C61.0341 22.3637 62.3636 28.7273 62.3636 36.0909ZM54.1818 36.0909C54.1818 30.0455 53.1705 24.9432 51.1477 20.7841C49.1477 16.625 46.4318 13.4773 43 11.3409C39.5909 9.20457 35.7727 8.13639 31.5455 8.13639C27.3182 8.13639 23.4886 9.20457 20.0568 11.3409C16.6477 13.4773 13.9318 16.625 11.9091 20.7841C9.9091 24.9432 8.9091 30.0455 8.9091 36.0909C8.9091 42.1364 9.9091 47.2387 11.9091 51.3978C13.9318 55.5568 16.6477 58.7046 20.0568 60.8409C23.4886 62.9773 27.3182 64.0455 31.5455 64.0455C35.7727 64.0455 39.5909 62.9773 43 60.8409C46.4318 58.7046 49.1477 55.5568 51.1477 51.3978C53.1705 47.2387 54.1818 42.1364 54.1818 36.0909Z" fill="black"/>
</svg>
